<svg width="441" height="122" viewBox="0 0 441 122" fill="none" xmlns="http://www.w3.org/2000/svg">
<path d="M5.8614 17.819L36.2563 6.50927C39.5231 5.29372 43 7.70977 43 11.1954V11.5L4.5 26C2.00885 27.2313 0.9956 28.6016 0 32.5V26.254C0 22.494 2.33744 19.1303 5.8614 17.819Z" fill="#00CA84"/>
<path d="M4.50803 25.2827L43.008 10.616C47.5898 8.87056 52.5 12.2545 52.5 17.1574V52.7556C52.5 56.5109 50.1684 59.8714 46.6508 61.1861L3 77.5C1.0128 78.8729 0.306793 79.8354 0 82V31.8241C0 28.9195 1.79374 26.3167 4.50803 25.2827Z" fill="#035865"/>
<path d="M2.60683 87.7875L41.5413 114.485C46.1865 117.671 52.5 114.345 52.5 108.712V75.6521C52.5 72.4193 50.9372 69.3859 48.3048 67.5093L2 34.5C0.382489 32.6252 0.0679428 31.3097 0 28.7437V82.8392C0 84.8175 0.975225 86.6687 2.60683 87.7875Z" fill="#00CA84"/>
<path d="M0.12207 30.5225C0.320015 32.0311 0.802818 33.1124 2 34.5L41.916 62.9551L3 77.5C1.0128 78.8729 0.306793 79.8354 0 82V31.8242C0 31.3818 0.0419371 30.9464 0.12207 30.5225Z" fill="#019174"/>
<path d="M5.8614 17.819L36.2563 6.50927C39.5231 5.29372 43 7.70977 43 11.1954V11.5L4.5 26C2.00885 27.2313 0.9956 28.6016 0 32.5V26.254C0 22.494 2.33744 19.1303 5.8614 17.819Z" fill="#00CA84"/>
<path d="M4.50803 25.2827L43.008 10.616C47.5898 8.87056 52.5 12.2545 52.5 17.1574V52.7556C52.5 56.5109 50.1684 59.8714 46.6508 61.1861L3 77.5C1.0128 78.8729 0.306793 79.8354 0 82V31.8241C0 28.9195 1.79374 26.3167 4.50803 25.2827Z" fill="#035865"/>
<path d="M0.12207 30.5225C0.320015 32.0311 0.802818 33.1124 2 34.5L41.916 62.9551L3 77.5C1.0128 78.8729 0.306793 79.8354 0 82V31.8242C0 31.3818 0.0419371 30.9464 0.12207 30.5225Z" fill="#019174"/>
<path d="M91.0455 86V39.4545H100.886V59.9773H101.5L118.25 39.4545H130.045L112.773 60.2955L130.25 86H118.477L105.727 66.8636L100.886 72.7727V86H91.0455ZM137.875 86L128.375 51.0909H138.17L143.58 74.5455H143.898L149.534 51.0909H159.148L164.875 74.4091H165.17L170.489 51.0909H180.261L170.784 86H160.534L154.534 64.0455H154.102L148.102 86H137.875ZM200.46 86.6818C196.869 86.6818 193.778 85.9545 191.188 84.5C188.612 83.0303 186.627 80.9545 185.233 78.2727C183.839 75.5758 183.142 72.3864 183.142 68.7045C183.142 65.1136 183.839 61.9621 185.233 59.25C186.627 56.5379 188.589 54.4242 191.119 52.9091C193.665 51.3939 196.65 50.6364 200.074 50.6364C202.377 50.6364 204.521 51.0076 206.506 51.75C208.506 52.4773 210.248 53.5758 211.733 55.0455C213.233 56.5152 214.4 58.3636 215.233 60.5909C216.066 62.803 216.483 65.3939 216.483 68.3636V71.0227H187.006V65.0227H207.369C207.369 63.6288 207.066 62.3939 206.46 61.3182C205.854 60.2424 205.013 59.4015 203.938 58.7955C202.877 58.1742 201.642 57.8636 200.233 57.8636C198.763 57.8636 197.46 58.2045 196.324 58.8864C195.203 59.553 194.324 60.4545 193.688 61.5909C193.051 62.7121 192.725 63.9621 192.71 65.3409V71.0455C192.71 72.7727 193.028 74.2652 193.665 75.5227C194.316 76.7803 195.233 77.75 196.415 78.4318C197.597 79.1136 198.998 79.4545 200.619 79.4545C201.695 79.4545 202.68 79.303 203.574 79C204.468 78.697 205.233 78.2424 205.869 77.6364C206.506 77.0303 206.991 76.2879 207.324 75.4091L216.278 76C215.824 78.1515 214.892 80.0303 213.483 81.6364C212.089 83.2273 210.286 84.4697 208.074 85.3636C205.877 86.2424 203.339 86.6818 200.46 86.6818ZM232.483 65.8182V86H222.801V51.0909H232.028V57.25H232.438C233.21 55.2197 234.506 53.6136 236.324 52.4318C238.142 51.2348 240.347 50.6364 242.938 50.6364C245.362 50.6364 247.475 51.1667 249.278 52.2273C251.081 53.2879 252.483 54.803 253.483 56.7727C254.483 58.7273 254.983 61.0606 254.983 63.7727V86H245.301V65.5C245.316 63.3636 244.771 61.697 243.665 60.5C242.559 59.2879 241.036 58.6818 239.097 58.6818C237.794 58.6818 236.642 58.9621 235.642 59.5227C234.657 60.0833 233.884 60.9015 233.324 61.9773C232.778 63.0379 232.498 64.3182 232.483 65.8182ZM281.182 51.0909V58.3636H260.159V51.0909H281.182ZM264.932 42.7273H274.614V75.2727C274.614 76.1667 274.75 76.8636 275.023 77.3636C275.295 77.8485 275.674 78.1894 276.159 78.3864C276.659 78.5833 277.235 78.6818 277.886 78.6818C278.341 78.6818 278.795 78.6439 279.25 78.5682C279.705 78.4773 280.053 78.4091 280.295 78.3636L281.818 85.5682C281.333 85.7197 280.652 85.8939 279.773 86.0909C278.894 86.303 277.826 86.4318 276.568 86.4773C274.235 86.5682 272.189 86.2576 270.432 85.5455C268.689 84.8333 267.333 83.7273 266.364 82.2273C265.394 80.7273 264.917 78.8333 264.932 76.5455V42.7273ZM297.443 86.6591C295.216 86.6591 293.231 86.2727 291.489 85.5C289.746 84.7121 288.367 83.553 287.352 82.0227C286.352 80.4773 285.852 78.553 285.852 76.25C285.852 74.3106 286.208 72.6818 286.92 71.3636C287.633 70.0455 288.602 68.9848 289.83 68.1818C291.057 67.3788 292.451 66.7727 294.011 66.3636C295.587 65.9545 297.239 65.6667 298.966 65.5C300.996 65.2879 302.633 65.0909 303.875 64.9091C305.117 64.7121 306.019 64.4242 306.58 64.0455C307.14 63.6667 307.42 63.1061 307.42 62.3636V62.2273C307.42 60.7879 306.966 59.6742 306.057 58.8864C305.163 58.0985 303.89 57.7045 302.239 57.7045C300.496 57.7045 299.11 58.0909 298.08 58.8636C297.049 59.6212 296.367 60.5758 296.034 61.7273L287.08 61C287.534 58.8788 288.428 57.0455 289.761 55.5C291.095 53.9394 292.814 52.7424 294.92 51.9091C297.042 51.0606 299.496 50.6364 302.284 50.6364C304.223 50.6364 306.08 50.8636 307.852 51.3182C309.64 51.7727 311.223 52.4773 312.602 53.4318C313.996 54.3864 315.095 55.6136 315.898 57.1136C316.701 58.5985 317.102 60.3788 317.102 62.4545V86H307.92V81.1591H307.648C307.087 82.25 306.337 83.2121 305.398 84.0455C304.458 84.8636 303.33 85.5076 302.011 85.9773C300.693 86.4318 299.17 86.6591 297.443 86.6591ZM300.216 79.9773C301.64 79.9773 302.898 79.697 303.989 79.1364C305.08 78.5606 305.936 77.7879 306.557 76.8182C307.178 75.8485 307.489 74.75 307.489 73.5227V69.8182C307.186 70.0152 306.769 70.197 306.239 70.3636C305.723 70.5152 305.14 70.6591 304.489 70.7955C303.837 70.9167 303.186 71.0303 302.534 71.1364C301.883 71.2273 301.292 71.3106 300.761 71.3864C299.625 71.553 298.633 71.8182 297.784 72.1818C296.936 72.5455 296.277 73.0379 295.807 73.6591C295.337 74.2652 295.102 75.0227 295.102 75.9318C295.102 77.25 295.58 78.2576 296.534 78.9545C297.504 79.6364 298.731 79.9773 300.216 79.9773ZM324.795 39.4545H336.932L349.75 70.7273H350.295L363.114 39.4545H375.25V86H365.705V55.7045H365.318L353.273 85.7727H346.773L334.727 55.5909H334.341V86H324.795V39.4545ZM398.949 86.6818C395.419 86.6818 392.366 85.9318 389.79 84.4318C387.229 82.9167 385.252 80.8106 383.858 78.1136C382.464 75.4015 381.767 72.2576 381.767 68.6818C381.767 65.0758 382.464 61.9242 383.858 59.2273C385.252 56.5152 387.229 54.4091 389.79 52.9091C392.366 51.3939 395.419 50.6364 398.949 50.6364C402.479 50.6364 405.525 51.3939 408.085 52.9091C410.661 54.4091 412.646 56.5152 414.04 59.2273C415.434 61.9242 416.131 65.0758 416.131 68.6818C416.131 72.2576 415.434 75.4015 414.04 78.1136C412.646 80.8106 410.661 82.9167 408.085 84.4318C405.525 85.9318 402.479 86.6818 398.949 86.6818ZM398.994 79.1818C400.6 79.1818 401.941 78.7273 403.017 77.8182C404.093 76.8939 404.903 75.6364 405.449 74.0455C406.009 72.4545 406.29 70.6439 406.29 68.6136C406.29 66.5833 406.009 64.7727 405.449 63.1818C404.903 61.5909 404.093 60.3333 403.017 59.4091C401.941 58.4848 400.6 58.0227 398.994 58.0227C397.373 58.0227 396.009 58.4848 394.903 59.4091C393.813 60.3333 392.987 61.5909 392.426 63.1818C391.881 64.7727 391.608 66.5833 391.608 68.6136C391.608 70.6439 391.881 72.4545 392.426 74.0455C392.987 75.6364 393.813 76.8939 394.903 77.8182C396.009 78.7273 397.373 79.1818 398.994 79.1818Z" fill="#00444F"/>
</svg>
