<svg width="53" height="122" viewBox="0 0 53 122" fill="none" xmlns="http://www.w3.org/2000/svg">
<path d="M5.8614 17.819L36.2563 6.50927C39.5231 5.29372 43 7.70977 43 11.1954V11.5L4.5 26C2.00885 27.2313 0.9956 28.6016 0 32.5V26.254C0 22.494 2.33744 19.1303 5.8614 17.819Z" fill="#00CA84"/>
<path d="M4.50803 25.2827L43.008 10.616C47.5898 8.87056 52.5 12.2545 52.5 17.1574V52.7556C52.5 56.5109 50.1684 59.8714 46.6508 61.1861L3 77.5C1.0128 78.8729 0.306793 79.8354 0 82V31.8241C0 28.9195 1.79374 26.3167 4.50803 25.2827Z" fill="#035865"/>
<path d="M2.60683 87.7875L41.5413 114.485C46.1865 117.671 52.5 114.345 52.5 108.712V75.6521C52.5 72.4193 50.9372 69.3859 48.3048 67.5093L2 34.5C0.382489 32.6252 0.0679428 31.3097 0 28.7437V82.8392C0 84.8175 0.975225 86.6687 2.60683 87.7875Z" fill="#00CA84"/>
<path d="M0.12207 30.5225C0.320015 32.0311 0.802818 33.1124 2 34.5L41.916 62.9551L3 77.5C1.0128 78.8729 0.306793 79.8354 0 82V31.8242C0 31.3818 0.0419371 30.9464 0.12207 30.5225Z" fill="#019174"/>
<path d="M5.8614 17.819L36.2563 6.50927C39.5231 5.29372 43 7.70977 43 11.1954V11.5L4.5 26C2.00885 27.2313 0.9956 28.6016 0 32.5V26.254C0 22.494 2.33744 19.1303 5.8614 17.819Z" fill="#00CA84"/>
<path d="M4.50803 25.2827L43.008 10.616C47.5898 8.87056 52.5 12.2545 52.5 17.1574V52.7556C52.5 56.5109 50.1684 59.8714 46.6508 61.1861L3 77.5C1.0128 78.8729 0.306793 79.8354 0 82V31.8241C0 28.9195 1.79374 26.3167 4.50803 25.2827Z" fill="#035865"/>
<path d="M0.12207 30.5225C0.320015 32.0311 0.802818 33.1124 2 34.5L41.916 62.9551L3 77.5C1.0128 78.8729 0.306793 79.8354 0 82V31.8242C0 31.3818 0.0419371 30.9464 0.12207 30.5225Z" fill="#019174"/>
</svg>
