<svg width="441" height="118" viewBox="0 0 441 118" fill="none" xmlns="http://www.w3.org/2000/svg">
<path d="M5.8614 13.819L36.2563 2.50927C39.5231 1.29372 43 3.70977 43 7.19538V7.5L4.5 22C2.00885 23.2313 0.9956 24.6016 0 28.5V22.254C0 18.494 2.33744 15.1303 5.8614 13.819Z" fill="#00CA84"/>
<path d="M4.50803 21.2827L43.008 6.61599C47.5898 4.87056 52.5 8.25446 52.5 13.1574V48.7556C52.5 52.5109 50.1684 55.8714 46.6508 57.1861L3 73.5C1.0128 74.8729 0.306793 75.8354 0 78V27.8241C0 24.9195 1.79374 22.3167 4.50803 21.2827Z" fill="#035865"/>
<path d="M2.60683 83.7875L41.5413 110.485C46.1865 113.671 52.5 110.345 52.5 104.712V71.6521C52.5 68.4193 50.9372 65.3859 48.3048 63.5093L2 30.5C0.382489 28.6252 0.0679428 27.3097 0 24.7437V78.8392C0 80.8175 0.975225 82.6687 2.60683 83.7875Z" fill="#00CA84"/>
<path d="M0.12207 26.5225C0.320015 28.0311 0.802818 29.1124 2 30.5L41.916 58.9551L3 73.5C1.0128 74.8729 0.306793 75.8354 0 78V27.8242C0 27.3818 0.0419371 26.9464 0.12207 26.5225Z" fill="#019174"/>
<path d="M5.8614 13.819L36.2563 2.50927C39.5231 1.29372 43 3.70977 43 7.19538V7.5L4.5 22C2.00885 23.2313 0.9956 24.6016 0 28.5V22.254C0 18.494 2.33744 15.1303 5.8614 13.819Z" fill="#9BB7AD"/>
<path d="M4.50803 21.2827L43.008 6.61599C47.5898 4.87056 52.5 8.25446 52.5 13.1574V48.7556C52.5 52.5109 50.1684 55.8714 46.6508 57.1861L3 73.5C1.0128 74.8729 0.306793 75.8354 0 78V27.8241C0 24.9195 1.79374 22.3167 4.50803 21.2827Z" fill="#ADD4C5"/>
<path d="M2.60683 83.7875L41.5413 110.485C46.1865 113.671 52.5 110.345 52.5 104.712V71.6521C52.5 68.4193 50.9372 65.3859 48.3048 63.5093L2 30.5C0.382489 28.6252 0.0679428 27.3097 0 24.7437V78.8392C0 80.8175 0.975225 82.6687 2.60683 83.7875Z" fill="#9BB7AD"/>
<path d="M0.12207 26.5225C0.320015 28.0311 0.802818 29.1124 2 30.5L41.916 58.9551L3 73.5C1.0128 74.8729 0.306793 75.8354 0 78V27.8242C0 27.3818 0.0419371 26.9464 0.12207 26.5225Z" fill="#D5EAE6"/>
<path d="M91.0455 82V35.4545H100.886V55.9773H101.5L118.25 35.4545H130.045L112.773 56.2955L130.25 82H118.477L105.727 62.8636L100.886 68.7727V82H91.0455ZM137.875 82L128.375 47.0909H138.17L143.58 70.5455H143.898L149.534 47.0909H159.148L164.875 70.4091H165.17L170.489 47.0909H180.261L170.784 82H160.534L154.534 60.0455H154.102L148.102 82H137.875ZM200.46 82.6818C196.869 82.6818 193.778 81.9545 191.188 80.5C188.612 79.0303 186.627 76.9545 185.233 74.2727C183.839 71.5758 183.142 68.3864 183.142 64.7045C183.142 61.1136 183.839 57.9621 185.233 55.25C186.627 52.5379 188.589 50.4242 191.119 48.9091C193.665 47.3939 196.65 46.6364 200.074 46.6364C202.377 46.6364 204.521 47.0076 206.506 47.75C208.506 48.4773 210.248 49.5758 211.733 51.0455C213.233 52.5152 214.4 54.3636 215.233 56.5909C216.066 58.803 216.483 61.3939 216.483 64.3636V67.0227H187.006V61.0227H207.369C207.369 59.6288 207.066 58.3939 206.46 57.3182C205.854 56.2424 205.013 55.4015 203.938 54.7955C202.877 54.1742 201.642 53.8636 200.233 53.8636C198.763 53.8636 197.46 54.2045 196.324 54.8864C195.203 55.553 194.324 56.4545 193.688 57.5909C193.051 58.7121 192.725 59.9621 192.71 61.3409V67.0455C192.71 68.7727 193.028 70.2652 193.665 71.5227C194.316 72.7803 195.233 73.75 196.415 74.4318C197.597 75.1136 198.998 75.4545 200.619 75.4545C201.695 75.4545 202.68 75.303 203.574 75C204.468 74.697 205.233 74.2424 205.869 73.6364C206.506 73.0303 206.991 72.2879 207.324 71.4091L216.278 72C215.824 74.1515 214.892 76.0303 213.483 77.6364C212.089 79.2273 210.286 80.4697 208.074 81.3636C205.877 82.2424 203.339 82.6818 200.46 82.6818ZM232.483 61.8182V82H222.801V47.0909H232.028V53.25H232.438C233.21 51.2197 234.506 49.6136 236.324 48.4318C238.142 47.2348 240.347 46.6364 242.938 46.6364C245.362 46.6364 247.475 47.1667 249.278 48.2273C251.081 49.2879 252.483 50.803 253.483 52.7727C254.483 54.7273 254.983 57.0606 254.983 59.7727V82H245.301V61.5C245.316 59.3636 244.771 57.697 243.665 56.5C242.559 55.2879 241.036 54.6818 239.097 54.6818C237.794 54.6818 236.642 54.9621 235.642 55.5227C234.657 56.0833 233.884 56.9015 233.324 57.9773C232.778 59.0379 232.498 60.3182 232.483 61.8182ZM281.182 47.0909V54.3636H260.159V47.0909H281.182ZM264.932 38.7273H274.614V71.2727C274.614 72.1667 274.75 72.8636 275.023 73.3636C275.295 73.8485 275.674 74.1894 276.159 74.3864C276.659 74.5833 277.235 74.6818 277.886 74.6818C278.341 74.6818 278.795 74.6439 279.25 74.5682C279.705 74.4773 280.053 74.4091 280.295 74.3636L281.818 81.5682C281.333 81.7197 280.652 81.8939 279.773 82.0909C278.894 82.303 277.826 82.4318 276.568 82.4773C274.235 82.5682 272.189 82.2576 270.432 81.5455C268.689 80.8333 267.333 79.7273 266.364 78.2273C265.394 76.7273 264.917 74.8333 264.932 72.5455V38.7273ZM297.443 82.6591C295.216 82.6591 293.231 82.2727 291.489 81.5C289.746 80.7121 288.367 79.553 287.352 78.0227C286.352 76.4773 285.852 74.553 285.852 72.25C285.852 70.3106 286.208 68.6818 286.92 67.3636C287.633 66.0455 288.602 64.9848 289.83 64.1818C291.057 63.3788 292.451 62.7727 294.011 62.3636C295.587 61.9545 297.239 61.6667 298.966 61.5C300.996 61.2879 302.633 61.0909 303.875 60.9091C305.117 60.7121 306.019 60.4242 306.58 60.0455C307.14 59.6667 307.42 59.1061 307.42 58.3636V58.2273C307.42 56.7879 306.966 55.6742 306.057 54.8864C305.163 54.0985 303.89 53.7045 302.239 53.7045C300.496 53.7045 299.11 54.0909 298.08 54.8636C297.049 55.6212 296.367 56.5758 296.034 57.7273L287.08 57C287.534 54.8788 288.428 53.0455 289.761 51.5C291.095 49.9394 292.814 48.7424 294.92 47.9091C297.042 47.0606 299.496 46.6364 302.284 46.6364C304.223 46.6364 306.08 46.8636 307.852 47.3182C309.64 47.7727 311.223 48.4773 312.602 49.4318C313.996 50.3864 315.095 51.6136 315.898 53.1136C316.701 54.5985 317.102 56.3788 317.102 58.4545V82H307.92V77.1591H307.648C307.087 78.25 306.337 79.2121 305.398 80.0455C304.458 80.8636 303.33 81.5076 302.011 81.9773C300.693 82.4318 299.17 82.6591 297.443 82.6591ZM300.216 75.9773C301.64 75.9773 302.898 75.697 303.989 75.1364C305.08 74.5606 305.936 73.7879 306.557 72.8182C307.178 71.8485 307.489 70.75 307.489 69.5227V65.8182C307.186 66.0152 306.769 66.197 306.239 66.3636C305.723 66.5152 305.14 66.6591 304.489 66.7955C303.837 66.9167 303.186 67.0303 302.534 67.1364C301.883 67.2273 301.292 67.3106 300.761 67.3864C299.625 67.553 298.633 67.8182 297.784 68.1818C296.936 68.5455 296.277 69.0379 295.807 69.6591C295.337 70.2652 295.102 71.0227 295.102 71.9318C295.102 73.25 295.58 74.2576 296.534 74.9545C297.504 75.6364 298.731 75.9773 300.216 75.9773ZM324.795 35.4545H336.932L349.75 66.7273H350.295L363.114 35.4545H375.25V82H365.705V51.7045H365.318L353.273 81.7727H346.773L334.727 51.5909H334.341V82H324.795V35.4545ZM398.949 82.6818C395.419 82.6818 392.366 81.9318 389.79 80.4318C387.229 78.9167 385.252 76.8106 383.858 74.1136C382.464 71.4015 381.767 68.2576 381.767 64.6818C381.767 61.0758 382.464 57.9242 383.858 55.2273C385.252 52.5152 387.229 50.4091 389.79 48.9091C392.366 47.3939 395.419 46.6364 398.949 46.6364C402.479 46.6364 405.525 47.3939 408.085 48.9091C410.661 50.4091 412.646 52.5152 414.04 55.2273C415.434 57.9242 416.131 61.0758 416.131 64.6818C416.131 68.2576 415.434 71.4015 414.04 74.1136C412.646 76.8106 410.661 78.9167 408.085 80.4318C405.525 81.9318 402.479 82.6818 398.949 82.6818ZM398.994 75.1818C400.6 75.1818 401.941 74.7273 403.017 73.8182C404.093 72.8939 404.903 71.6364 405.449 70.0455C406.009 68.4545 406.29 66.6439 406.29 64.6136C406.29 62.5833 406.009 60.7727 405.449 59.1818C404.903 57.5909 404.093 56.3333 403.017 55.4091C401.941 54.4848 400.6 54.0227 398.994 54.0227C397.373 54.0227 396.009 54.4848 394.903 55.4091C393.813 56.3333 392.987 57.5909 392.426 59.1818C391.881 60.7727 391.608 62.5833 391.608 64.6136C391.608 66.6439 391.881 68.4545 392.426 70.0455C392.987 71.6364 393.813 72.8939 394.903 73.8182C396.009 74.7273 397.373 75.1818 398.994 75.1818Z" fill="#E5F9F5"/>
</svg>
