<svg width="441" height="118" viewBox="0 0 441 118" fill="none" xmlns="http://www.w3.org/2000/svg">
<path d="M5.8614 13.819L36.2563 2.50927C39.5231 1.29372 43 3.70977 43 7.19538V7.5L4.5 22C2.00885 23.2313 0.9956 24.6016 0 28.5V22.254C0 18.494 2.33744 15.1303 5.8614 13.819Z" fill="#00CA84"/>
<path d="M4.50803 21.2827L43.008 6.61599C47.5898 4.87056 52.5 8.25446 52.5 13.1574V48.7556C52.5 52.5109 50.1684 55.8714 46.6508 57.1861L3 73.5C1.0128 74.8729 0.306793 75.8354 0 78V27.8241C0 24.9195 1.79374 22.3167 4.50803 21.2827Z" fill="#035865"/>
<path d="M2.60683 83.7875L41.5413 110.485C46.1865 113.671 52.5 110.345 52.5 104.712V71.6521C52.5 68.4193 50.9372 65.3859 48.3048 63.5093L2 30.5C0.382489 28.6252 0.0679428 27.3097 0 24.7437V78.8392C0 80.8175 0.975225 82.6687 2.60683 83.7875Z" fill="#00CA84"/>
<path d="M0.12207 26.5225C0.320015 28.0311 0.802818 29.1124 2 30.5L41.916 58.9551L3 73.5C1.0128 74.8729 0.306793 75.8354 0 78V27.8242C0 27.3818 0.0419371 26.9464 0.12207 26.5225Z" fill="#019174"/>
<path d="M5.8614 13.819L36.2563 2.50927C39.5231 1.29372 43 3.70977 43 7.19538V7.5L4.5 22C2.00885 23.2313 0.9956 24.6016 0 28.5V22.254C0 18.494 2.33744 15.1303 5.8614 13.819Z" fill="#9BB7AD"/>
<path d="M4.50803 21.2827L43.008 6.61599C47.5898 4.87056 52.5 8.25446 52.5 13.1574V48.7556C52.5 52.5109 50.1684 55.8714 46.6508 57.1861L3 73.5C1.0128 74.8729 0.306793 75.8354 0 78V27.8241C0 24.9195 1.79374 22.3167 4.50803 21.2827Z" fill="#ADD4C5"/>
<path d="M2.60683 83.7875L41.5413 110.485C46.1865 113.671 52.5 110.345 52.5 104.712V71.6521C52.5 68.4193 50.9372 65.3859 48.3048 63.5093L2 30.5C0.382489 28.6252 0.0679428 27.3097 0 24.7437V78.8392C0 80.8175 0.975225 82.6687 2.60683 83.7875Z" fill="#9BB7AD"/>
<path d="M0.12207 26.5225C0.320015 28.0311 0.802818 29.1124 2 30.5L41.916 58.9551L3 73.5C1.0128 74.8729 0.306793 75.8354 0 78V27.8242C0 27.3818 0.0419371 26.9464 0.12207 26.5225Z" fill="#D5EAE6"/>
<path d="M99.6364 71.9545L99.6591 60.3409H101.068L112.25 47.0909H123.364L108.341 64.6364H106.045L99.6364 71.9545ZM90.8636 82V35.4545H100.545V82H90.8636ZM112.682 82L102.409 66.7955L108.864 59.9545L124.023 82H112.682ZM135 82L125.5 47.0909H135.295L140.705 70.5455H141.023L146.659 47.0909H156.273L162 70.4091H162.295L167.614 47.0909H177.386L167.909 82H157.659L151.659 60.0455H151.227L145.227 82H135ZM197.585 82.6818C193.994 82.6818 190.903 81.9545 188.312 80.5C185.737 79.0303 183.752 76.9545 182.358 74.2727C180.964 71.5758 180.267 68.3864 180.267 64.7045C180.267 61.1136 180.964 57.9621 182.358 55.25C183.752 52.5379 185.714 50.4242 188.244 48.9091C190.79 47.3939 193.775 46.6364 197.199 46.6364C199.502 46.6364 201.646 47.0076 203.631 47.75C205.631 48.4773 207.373 49.5758 208.858 51.0455C210.358 52.5152 211.525 54.3636 212.358 56.5909C213.191 58.803 213.608 61.3939 213.608 64.3636V67.0227H184.131V61.0227H204.494C204.494 59.6288 204.191 58.3939 203.585 57.3182C202.979 56.2424 202.138 55.4015 201.062 54.7955C200.002 54.1742 198.767 53.8636 197.358 53.8636C195.888 53.8636 194.585 54.2045 193.449 54.8864C192.328 55.553 191.449 56.4545 190.812 57.5909C190.176 58.7121 189.85 59.9621 189.835 61.3409V67.0455C189.835 68.7727 190.153 70.2652 190.79 71.5227C191.441 72.7803 192.358 73.75 193.54 74.4318C194.722 75.1136 196.123 75.4545 197.744 75.4545C198.82 75.4545 199.805 75.303 200.699 75C201.593 74.697 202.358 74.2424 202.994 73.6364C203.631 73.0303 204.116 72.2879 204.449 71.4091L213.403 72C212.949 74.1515 212.017 76.0303 210.608 77.6364C209.214 79.2273 207.411 80.4697 205.199 81.3636C203.002 82.2424 200.464 82.6818 197.585 82.6818ZM229.608 61.8182V82H219.926V47.0909H229.153V53.25H229.562C230.335 51.2197 231.631 49.6136 233.449 48.4318C235.267 47.2348 237.472 46.6364 240.062 46.6364C242.487 46.6364 244.6 47.1667 246.403 48.2273C248.206 49.2879 249.608 50.803 250.608 52.7727C251.608 54.7273 252.108 57.0606 252.108 59.7727V82H242.426V61.5C242.441 59.3636 241.896 57.697 240.79 56.5C239.684 55.2879 238.161 54.6818 236.222 54.6818C234.919 54.6818 233.767 54.9621 232.767 55.5227C231.782 56.0833 231.009 56.9015 230.449 57.9773C229.903 59.0379 229.623 60.3182 229.608 61.8182ZM278.307 47.0909V54.3636H257.284V47.0909H278.307ZM262.057 38.7273H271.739V71.2727C271.739 72.1667 271.875 72.8636 272.148 73.3636C272.42 73.8485 272.799 74.1894 273.284 74.3864C273.784 74.5833 274.36 74.6818 275.011 74.6818C275.466 74.6818 275.92 74.6439 276.375 74.5682C276.83 74.4773 277.178 74.4091 277.42 74.3636L278.943 81.5682C278.458 81.7197 277.777 81.8939 276.898 82.0909C276.019 82.303 274.951 82.4318 273.693 82.4773C271.36 82.5682 269.314 82.2576 267.557 81.5455C265.814 80.8333 264.458 79.7273 263.489 78.2273C262.519 76.7273 262.042 74.8333 262.057 72.5455V38.7273ZM294.568 82.6591C292.341 82.6591 290.356 82.2727 288.614 81.5C286.871 80.7121 285.492 79.553 284.477 78.0227C283.477 76.4773 282.977 74.553 282.977 72.25C282.977 70.3106 283.333 68.6818 284.045 67.3636C284.758 66.0455 285.727 64.9848 286.955 64.1818C288.182 63.3788 289.576 62.7727 291.136 62.3636C292.712 61.9545 294.364 61.6667 296.091 61.5C298.121 61.2879 299.758 61.0909 301 60.9091C302.242 60.7121 303.144 60.4242 303.705 60.0455C304.265 59.6667 304.545 59.1061 304.545 58.3636V58.2273C304.545 56.7879 304.091 55.6742 303.182 54.8864C302.288 54.0985 301.015 53.7045 299.364 53.7045C297.621 53.7045 296.235 54.0909 295.205 54.8636C294.174 55.6212 293.492 56.5758 293.159 57.7273L284.205 57C284.659 54.8788 285.553 53.0455 286.886 51.5C288.22 49.9394 289.939 48.7424 292.045 47.9091C294.167 47.0606 296.621 46.6364 299.409 46.6364C301.348 46.6364 303.205 46.8636 304.977 47.3182C306.765 47.7727 308.348 48.4773 309.727 49.4318C311.121 50.3864 312.22 51.6136 313.023 53.1136C313.826 54.5985 314.227 56.3788 314.227 58.4545V82H305.045V77.1591H304.773C304.212 78.25 303.462 79.2121 302.523 80.0455C301.583 80.8636 300.455 81.5076 299.136 81.9773C297.818 82.4318 296.295 82.6591 294.568 82.6591ZM297.341 75.9773C298.765 75.9773 300.023 75.697 301.114 75.1364C302.205 74.5606 303.061 73.7879 303.682 72.8182C304.303 71.8485 304.614 70.75 304.614 69.5227V65.8182C304.311 66.0152 303.894 66.197 303.364 66.3636C302.848 66.5152 302.265 66.6591 301.614 66.7955C300.962 66.9167 300.311 67.0303 299.659 67.1364C299.008 67.2273 298.417 67.3106 297.886 67.3864C296.75 67.553 295.758 67.8182 294.909 68.1818C294.061 68.5455 293.402 69.0379 292.932 69.6591C292.462 70.2652 292.227 71.0227 292.227 71.9318C292.227 73.25 292.705 74.2576 293.659 74.9545C294.629 75.6364 295.856 75.9773 297.341 75.9773ZM321.739 82V47.0909H330.966V53.25H331.375C332.102 51.2045 333.314 49.5909 335.011 48.4091C336.708 47.2273 338.739 46.6364 341.102 46.6364C343.496 46.6364 345.534 47.2348 347.216 48.4318C348.898 49.6136 350.019 51.2197 350.58 53.25H350.943C351.655 51.25 352.943 49.6515 354.807 48.4545C356.686 47.2424 358.905 46.6364 361.466 46.6364C364.723 46.6364 367.367 47.6742 369.398 49.75C371.443 51.8106 372.466 54.7348 372.466 58.5227V82H362.807V60.4318C362.807 58.4924 362.292 57.0379 361.261 56.0682C360.231 55.0985 358.943 54.6136 357.398 54.6136C355.64 54.6136 354.269 55.1742 353.284 56.2955C352.299 57.4015 351.807 58.8636 351.807 60.6818V82H342.42V60.2273C342.42 58.5152 341.928 57.1515 340.943 56.1364C339.973 55.1212 338.693 54.6136 337.102 54.6136C336.027 54.6136 335.057 54.8864 334.193 55.4318C333.345 55.9621 332.67 56.7121 332.17 57.6818C331.67 58.6364 331.42 59.7576 331.42 61.0455V82H321.739ZM395.886 82.6818C392.356 82.6818 389.303 81.9318 386.727 80.4318C384.167 78.9167 382.189 76.8106 380.795 74.1136C379.402 71.4015 378.705 68.2576 378.705 64.6818C378.705 61.0758 379.402 57.9242 380.795 55.2273C382.189 52.5152 384.167 50.4091 386.727 48.9091C389.303 47.3939 392.356 46.6364 395.886 46.6364C399.417 46.6364 402.462 47.3939 405.023 48.9091C407.598 50.4091 409.583 52.5152 410.977 55.2273C412.371 57.9242 413.068 61.0758 413.068 64.6818C413.068 68.2576 412.371 71.4015 410.977 74.1136C409.583 76.8106 407.598 78.9167 405.023 80.4318C402.462 81.9318 399.417 82.6818 395.886 82.6818ZM395.932 75.1818C397.538 75.1818 398.879 74.7273 399.955 73.8182C401.03 72.8939 401.841 71.6364 402.386 70.0455C402.947 68.4545 403.227 66.6439 403.227 64.6136C403.227 62.5833 402.947 60.7727 402.386 59.1818C401.841 57.5909 401.03 56.3333 399.955 55.4091C398.879 54.4848 397.538 54.0227 395.932 54.0227C394.311 54.0227 392.947 54.4848 391.841 55.4091C390.75 56.3333 389.924 57.5909 389.364 59.1818C388.818 60.7727 388.545 62.5833 388.545 64.6136C388.545 66.6439 388.818 68.4545 389.364 70.0455C389.924 71.6364 390.75 72.8939 391.841 73.8182C392.947 74.7273 394.311 75.1818 395.932 75.1818Z" fill="#E5F9F5"/>
</svg>
