<svg width="53" height="118" viewBox="0 0 53 118" fill="none" xmlns="http://www.w3.org/2000/svg">
<path d="M5.8614 13.819L36.2563 2.50927C39.5231 1.29372 43 3.70977 43 7.19538V7.5L4.5 22C2.00885 23.2313 0.9956 24.6016 0 28.5V22.254C0 18.494 2.33744 15.1303 5.8614 13.819Z" fill="#00CA84"/>
<path d="M4.50803 21.2827L43.008 6.61599C47.5898 4.87056 52.5 8.25446 52.5 13.1574V48.7556C52.5 52.5109 50.1684 55.8714 46.6508 57.1861L3 73.5C1.0128 74.8729 0.306793 75.8354 0 78V27.8241C0 24.9195 1.79374 22.3167 4.50803 21.2827Z" fill="#035865"/>
<path d="M2.60683 83.7875L41.5413 110.485C46.1865 113.671 52.5 110.345 52.5 104.712V71.6521C52.5 68.4193 50.9372 65.3859 48.3048 63.5093L2 30.5C0.382489 28.6252 0.0679428 27.3097 0 24.7437V78.8392C0 80.8175 0.975225 82.6687 2.60683 83.7875Z" fill="#00CA84"/>
<path d="M0.12207 26.5225C0.320015 28.0311 0.802818 29.1124 2 30.5L41.916 58.9551L3 73.5C1.0128 74.8729 0.306793 75.8354 0 78V27.8242C0 27.3818 0.0419371 26.9464 0.12207 26.5225Z" fill="#019174"/>
<path d="M5.8614 13.819L36.2563 2.50927C39.5231 1.29372 43 3.70977 43 7.19538V7.5L4.5 22C2.00885 23.2313 0.9956 24.6016 0 28.5V22.254C0 18.494 2.33744 15.1303 5.8614 13.819Z" fill="#9BB7AD"/>
<path d="M4.50803 21.2827L43.008 6.61599C47.5898 4.87056 52.5 8.25446 52.5 13.1574V48.7556C52.5 52.5109 50.1684 55.8714 46.6508 57.1861L3 73.5C1.0128 74.8729 0.306793 75.8354 0 78V27.8241C0 24.9195 1.79374 22.3167 4.50803 21.2827Z" fill="#ADD4C5"/>
<path d="M2.60683 83.7875L41.5413 110.485C46.1865 113.671 52.5 110.345 52.5 104.712V71.6521C52.5 68.4193 50.9372 65.3859 48.3048 63.5093L2 30.5C0.382489 28.6252 0.0679428 27.3097 0 24.7437V78.8392C0 80.8175 0.975225 82.6687 2.60683 83.7875Z" fill="#9BB7AD"/>
<path d="M0.12207 26.5225C0.320015 28.0311 0.802818 29.1124 2 30.5L41.916 58.9551L3 73.5C1.0128 74.8729 0.306793 75.8354 0 78V27.8242C0 27.3818 0.0419371 26.9464 0.12207 26.5225Z" fill="#D5EAE6"/>
</svg>
