<svg width="441" height="122" viewBox="0 0 441 122" fill="none" xmlns="http://www.w3.org/2000/svg">
<path d="M5.8614 17.819L36.2563 6.50927C39.5231 5.29372 43 7.70977 43 11.1954V11.5L4.5 26C2.00885 27.2313 0.9956 28.6016 0 32.5V26.254C0 22.494 2.33744 19.1303 5.8614 17.819Z" fill="#00CA84"/>
<path d="M4.50803 25.2827L43.008 10.616C47.5898 8.87056 52.5 12.2545 52.5 17.1574V52.7556C52.5 56.5109 50.1684 59.8714 46.6508 61.1861L3 77.5C1.0128 78.8729 0.306793 79.8354 0 82V31.8241C0 28.9195 1.79374 26.3167 4.50803 25.2827Z" fill="#035865"/>
<path d="M2.60683 87.7875L41.5413 114.485C46.1865 117.671 52.5 114.345 52.5 108.712V75.6521C52.5 72.4193 50.9372 69.3859 48.3048 67.5093L2 34.5C0.382489 32.6252 0.0679428 31.3097 0 28.7437V82.8392C0 84.8175 0.975225 86.6687 2.60683 87.7875Z" fill="#00CA84"/>
<path d="M0.12207 30.5225C0.320015 32.0311 0.802818 33.1124 2 34.5L41.916 62.9551L3 77.5C1.0128 78.8729 0.306793 79.8354 0 82V31.8242C0 31.3818 0.0419371 30.9464 0.12207 30.5225Z" fill="#019174"/>
<path d="M5.8614 17.819L36.2563 6.50927C39.5231 5.29372 43 7.70977 43 11.1954V11.5L4.5 26C2.00885 27.2313 0.9956 28.6016 0 32.5V26.254C0 22.494 2.33744 19.1303 5.8614 17.819Z" fill="#00CA84"/>
<path d="M4.50803 25.2827L43.008 10.616C47.5898 8.87056 52.5 12.2545 52.5 17.1574V52.7556C52.5 56.5109 50.1684 59.8714 46.6508 61.1861L3 77.5C1.0128 78.8729 0.306793 79.8354 0 82V31.8241C0 28.9195 1.79374 26.3167 4.50803 25.2827Z" fill="#035865"/>
<path d="M0.12207 30.5225C0.320015 32.0311 0.802818 33.1124 2 34.5L41.916 62.9551L3 77.5C1.0128 78.8729 0.306793 79.8354 0 82V31.8242C0 31.3818 0.0419371 30.9464 0.12207 30.5225Z" fill="#019174"/>
<path d="M99.6364 75.9545L99.6591 64.3409H101.068L112.25 51.0909H123.364L108.341 68.6364H106.045L99.6364 75.9545ZM90.8636 86V39.4545H100.545V86H90.8636ZM112.682 86L102.409 70.7955L108.864 63.9545L124.023 86H112.682ZM135 86L125.5 51.0909H135.295L140.705 74.5455H141.023L146.659 51.0909H156.273L162 74.4091H162.295L167.614 51.0909H177.386L167.909 86H157.659L151.659 64.0455H151.227L145.227 86H135ZM197.585 86.6818C193.994 86.6818 190.903 85.9545 188.312 84.5C185.737 83.0303 183.752 80.9545 182.358 78.2727C180.964 75.5758 180.267 72.3864 180.267 68.7045C180.267 65.1136 180.964 61.9621 182.358 59.25C183.752 56.5379 185.714 54.4242 188.244 52.9091C190.79 51.3939 193.775 50.6364 197.199 50.6364C199.502 50.6364 201.646 51.0076 203.631 51.75C205.631 52.4773 207.373 53.5758 208.858 55.0455C210.358 56.5152 211.525 58.3636 212.358 60.5909C213.191 62.803 213.608 65.3939 213.608 68.3636V71.0227H184.131V65.0227H204.494C204.494 63.6288 204.191 62.3939 203.585 61.3182C202.979 60.2424 202.138 59.4015 201.062 58.7955C200.002 58.1742 198.767 57.8636 197.358 57.8636C195.888 57.8636 194.585 58.2045 193.449 58.8864C192.328 59.553 191.449 60.4545 190.812 61.5909C190.176 62.7121 189.85 63.9621 189.835 65.3409V71.0455C189.835 72.7727 190.153 74.2652 190.79 75.5227C191.441 76.7803 192.358 77.75 193.54 78.4318C194.722 79.1136 196.123 79.4545 197.744 79.4545C198.82 79.4545 199.805 79.303 200.699 79C201.593 78.697 202.358 78.2424 202.994 77.6364C203.631 77.0303 204.116 76.2879 204.449 75.4091L213.403 76C212.949 78.1515 212.017 80.0303 210.608 81.6364C209.214 83.2273 207.411 84.4697 205.199 85.3636C203.002 86.2424 200.464 86.6818 197.585 86.6818ZM229.608 65.8182V86H219.926V51.0909H229.153V57.25H229.562C230.335 55.2197 231.631 53.6136 233.449 52.4318C235.267 51.2348 237.472 50.6364 240.062 50.6364C242.487 50.6364 244.6 51.1667 246.403 52.2273C248.206 53.2879 249.608 54.803 250.608 56.7727C251.608 58.7273 252.108 61.0606 252.108 63.7727V86H242.426V65.5C242.441 63.3636 241.896 61.697 240.79 60.5C239.684 59.2879 238.161 58.6818 236.222 58.6818C234.919 58.6818 233.767 58.9621 232.767 59.5227C231.782 60.0833 231.009 60.9015 230.449 61.9773C229.903 63.0379 229.623 64.3182 229.608 65.8182ZM278.307 51.0909V58.3636H257.284V51.0909H278.307ZM262.057 42.7273H271.739V75.2727C271.739 76.1667 271.875 76.8636 272.148 77.3636C272.42 77.8485 272.799 78.1894 273.284 78.3864C273.784 78.5833 274.36 78.6818 275.011 78.6818C275.466 78.6818 275.92 78.6439 276.375 78.5682C276.83 78.4773 277.178 78.4091 277.42 78.3636L278.943 85.5682C278.458 85.7197 277.777 85.8939 276.898 86.0909C276.019 86.303 274.951 86.4318 273.693 86.4773C271.36 86.5682 269.314 86.2576 267.557 85.5455C265.814 84.8333 264.458 83.7273 263.489 82.2273C262.519 80.7273 262.042 78.8333 262.057 76.5455V42.7273ZM294.568 86.6591C292.341 86.6591 290.356 86.2727 288.614 85.5C286.871 84.7121 285.492 83.553 284.477 82.0227C283.477 80.4773 282.977 78.553 282.977 76.25C282.977 74.3106 283.333 72.6818 284.045 71.3636C284.758 70.0455 285.727 68.9848 286.955 68.1818C288.182 67.3788 289.576 66.7727 291.136 66.3636C292.712 65.9545 294.364 65.6667 296.091 65.5C298.121 65.2879 299.758 65.0909 301 64.9091C302.242 64.7121 303.144 64.4242 303.705 64.0455C304.265 63.6667 304.545 63.1061 304.545 62.3636V62.2273C304.545 60.7879 304.091 59.6742 303.182 58.8864C302.288 58.0985 301.015 57.7045 299.364 57.7045C297.621 57.7045 296.235 58.0909 295.205 58.8636C294.174 59.6212 293.492 60.5758 293.159 61.7273L284.205 61C284.659 58.8788 285.553 57.0455 286.886 55.5C288.22 53.9394 289.939 52.7424 292.045 51.9091C294.167 51.0606 296.621 50.6364 299.409 50.6364C301.348 50.6364 303.205 50.8636 304.977 51.3182C306.765 51.7727 308.348 52.4773 309.727 53.4318C311.121 54.3864 312.22 55.6136 313.023 57.1136C313.826 58.5985 314.227 60.3788 314.227 62.4545V86H305.045V81.1591H304.773C304.212 82.25 303.462 83.2121 302.523 84.0455C301.583 84.8636 300.455 85.5076 299.136 85.9773C297.818 86.4318 296.295 86.6591 294.568 86.6591ZM297.341 79.9773C298.765 79.9773 300.023 79.697 301.114 79.1364C302.205 78.5606 303.061 77.7879 303.682 76.8182C304.303 75.8485 304.614 74.75 304.614 73.5227V69.8182C304.311 70.0152 303.894 70.197 303.364 70.3636C302.848 70.5152 302.265 70.6591 301.614 70.7955C300.962 70.9167 300.311 71.0303 299.659 71.1364C299.008 71.2273 298.417 71.3106 297.886 71.3864C296.75 71.553 295.758 71.8182 294.909 72.1818C294.061 72.5455 293.402 73.0379 292.932 73.6591C292.462 74.2652 292.227 75.0227 292.227 75.9318C292.227 77.25 292.705 78.2576 293.659 78.9545C294.629 79.6364 295.856 79.9773 297.341 79.9773ZM321.739 86V51.0909H330.966V57.25H331.375C332.102 55.2045 333.314 53.5909 335.011 52.4091C336.708 51.2273 338.739 50.6364 341.102 50.6364C343.496 50.6364 345.534 51.2348 347.216 52.4318C348.898 53.6136 350.019 55.2197 350.58 57.25H350.943C351.655 55.25 352.943 53.6515 354.807 52.4545C356.686 51.2424 358.905 50.6364 361.466 50.6364C364.723 50.6364 367.367 51.6742 369.398 53.75C371.443 55.8106 372.466 58.7348 372.466 62.5227V86H362.807V64.4318C362.807 62.4924 362.292 61.0379 361.261 60.0682C360.231 59.0985 358.943 58.6136 357.398 58.6136C355.64 58.6136 354.269 59.1742 353.284 60.2955C352.299 61.4015 351.807 62.8636 351.807 64.6818V86H342.42V64.2273C342.42 62.5152 341.928 61.1515 340.943 60.1364C339.973 59.1212 338.693 58.6136 337.102 58.6136C336.027 58.6136 335.057 58.8864 334.193 59.4318C333.345 59.9621 332.67 60.7121 332.17 61.6818C331.67 62.6364 331.42 63.7576 331.42 65.0455V86H321.739ZM395.886 86.6818C392.356 86.6818 389.303 85.9318 386.727 84.4318C384.167 82.9167 382.189 80.8106 380.795 78.1136C379.402 75.4015 378.705 72.2576 378.705 68.6818C378.705 65.0758 379.402 61.9242 380.795 59.2273C382.189 56.5152 384.167 54.4091 386.727 52.9091C389.303 51.3939 392.356 50.6364 395.886 50.6364C399.417 50.6364 402.462 51.3939 405.023 52.9091C407.598 54.4091 409.583 56.5152 410.977 59.2273C412.371 61.9242 413.068 65.0758 413.068 68.6818C413.068 72.2576 412.371 75.4015 410.977 78.1136C409.583 80.8106 407.598 82.9167 405.023 84.4318C402.462 85.9318 399.417 86.6818 395.886 86.6818ZM395.932 79.1818C397.538 79.1818 398.879 78.7273 399.955 77.8182C401.03 76.8939 401.841 75.6364 402.386 74.0455C402.947 72.4545 403.227 70.6439 403.227 68.6136C403.227 66.5833 402.947 64.7727 402.386 63.1818C401.841 61.5909 401.03 60.3333 399.955 59.4091C398.879 58.4848 397.538 58.0227 395.932 58.0227C394.311 58.0227 392.947 58.4848 391.841 59.4091C390.75 60.3333 389.924 61.5909 389.364 63.1818C388.818 64.7727 388.545 66.5833 388.545 68.6136C388.545 70.6439 388.818 72.4545 389.364 74.0455C389.924 75.6364 390.75 76.8939 391.841 77.8182C392.947 78.7273 394.311 79.1818 395.932 79.1818Z" fill="#00444F"/>
</svg>
